REM DIRINDEX 1\2,1\4,1\3\5,1\3\6,1\3\7
REM DIRNAME cjc082,folder01,folder02,folder03,folder04,folder05,folder06
TITLE ""
FILE "CD1Track20.mp3" MP3
  TRACK 01 AUDIO
    TITLE "0:"
    INDEX 01 00:00:00
  TRACK 02 AUDIO
    TITLE "5:cjc082_0328"
    INDEX 01 00:00:25
  TRACK 03 AUDIO
    TITLE "0:"
    INDEX 01 00:01:44
  TRACK 04 AUDIO
    TITLE "6:cjc082_0329"
    INDEX 01 00:02:18
  TRACK 05 AUDIO
    TITLE "0:"
    INDEX 01 00:03:47
  TRACK 06 AUDIO
    TITLE "5:cjc082_0330"
    INDEX 01 00:04:19
  TRACK 07 AUDIO
    TITLE "0:"
    INDEX 01 00:05:36
  TRACK 08 AUDIO
    TITLE "6:cjc082_0331"
    INDEX 01 00:06:04
  TRACK 09 AUDIO
    TITLE "0:"
    INDEX 01 00:08:28
  TRACK 10 AUDIO
    TITLE "5:cjc082_0332"
    INDEX 01 00:08:70
  TRACK 11 AUDIO
    TITLE "0:"
    INDEX 01 00:10:37
  TRACK 12 AUDIO
    TITLE "6:cjc082_0333"
    INDEX 01 00:11:09
  TRACK 13 AUDIO
    TITLE "0:"
    INDEX 01 00:12:46
  TRACK 14 AUDIO
    TITLE "5:cjc082_0334"
    INDEX 01 00:13:22
  TRACK 15 AUDIO
    TITLE "0:"
    INDEX 01 00:14:35
  TRACK 16 AUDIO
    TITLE "6:cjc082_0335"
    INDEX 01 00:15:15
  TRACK 17 AUDIO
    TITLE "0:"
    INDEX 01 00:16:36
  TRACK 18 AUDIO
    TITLE "5:cjc082_0336"
    INDEX 01 00:17:12
  TRACK 19 AUDIO
    TITLE "0:"
    INDEX 01 00:18:27
  TRACK 20 AUDIO
    TITLE "6:cjc082_0337"
    INDEX 01 00:19:11
  TRACK 21 AUDIO
    TITLE "0:"
    INDEX 01 00:22:52
  TRACK 22 AUDIO
    TITLE "5:cjc082_0338"
    INDEX 01 00:23:26
  TRACK 23 AUDIO
    TITLE "0:"
    INDEX 01 00:24:65
  TRACK 24 AUDIO
    TITLE "6:cjc082_0339"
    INDEX 01 00:25:35
  TRACK 25 AUDIO
    TITLE "0:"
    INDEX 01 00:27:41
  TRACK 26 AUDIO
    TITLE "5:cjc082_0340"
    INDEX 01 00:28:13
  TRACK 27 AUDIO
    TITLE "0:"
    INDEX 01 00:29:40
  TRACK 28 AUDIO
    TITLE "6:cjc082_0341"
    INDEX 01 00:30:16
  TRACK 29 AUDIO
    TITLE "0:"
    INDEX 01 00:31:22
  TRACK 30 AUDIO
    TITLE "5:cjc082_0342"
    INDEX 01 00:31:73
  TRACK 31 AUDIO
    TITLE "0:"
    INDEX 01 00:33:24
  TRACK 32 AUDIO
    TITLE "6:cjc082_0343"
    INDEX 01 00:34:00
  TRACK 33 AUDIO
    TITLE "0:"
    INDEX 01 00:35:17
  TRACK 34 AUDIO
    TITLE "5:cjc082_0344"
    INDEX 01 00:35:66
  TRACK 35 AUDIO
    TITLE "0:"
    INDEX 01 00:37:01
  TRACK 36 AUDIO
    TITLE "6:cjc082_0345"
    INDEX 01 00:37:54
  TRACK 37 AUDIO
    TITLE "0:"
    INDEX 01 00:39:03
  TRACK 38 AUDIO
    TITLE "5:cjc082_0346"
    INDEX 01 00:39:54
  TRACK 39 AUDIO
    TITLE "0:"
    INDEX 01 00:40:68
  TRACK 40 AUDIO
    TITLE "6:cjc082_0347"
    INDEX 01 00:41:47
  TRACK 41 AUDIO
    TITLE "0:"
    INDEX 01 00:43:09
  TRACK 42 AUDIO
    TITLE "5:cjc082_0348"
    INDEX 01 00:43:60
  TRACK 43 AUDIO
    TITLE "0:"
    INDEX 01 00:45:18
  TRACK 44 AUDIO
    TITLE "6:cjc082_0349"
    INDEX 01 00:45:69
  TRACK 45 AUDIO
    TITLE "0:"
    INDEX 01 00:48:38
  TRACK 46 AUDIO
    TITLE "5:cjc082_0350"
    INDEX 01 00:49:16
  TRACK 47 AUDIO
    TITLE "0:"
    INDEX 01 00:50:48
  TRACK 48 AUDIO
    TITLE "6:cjc082_0351"
    INDEX 01 00:51:24
  TRACK 49 AUDIO
    TITLE "0:"
    INDEX 01 00:52:20
  TRACK 50 AUDIO
    TITLE "5:cjc082_0352"
    INDEX 01 00:53:02
  TRACK 51 AUDIO
    TITLE "0:"
    INDEX 01 00:54:25
  TRACK 52 AUDIO
    TITLE "6:cjc082_0353"
    INDEX 01 00:54:74
  TRACK 53 AUDIO
    TITLE "0:"
    INDEX 01 00:56:55
  TRACK 54 AUDIO
    TITLE "5:cjc082_0354"
    INDEX 01 00:57:33
  TRACK 55 AUDIO
    TITLE "0:"
    INDEX 01 00:58:40
  TRACK 56 AUDIO
    TITLE "6:cjc082_0355"
    INDEX 01 00:59:18
  TRACK 57 AUDIO
    TITLE "0:"
    INDEX 01 01:04:21
  TRACK 58 AUDIO
    TITLE "7:cjc082_0356"
    INDEX 01 01:05:62
  TRACK 59 AUDIO
    TITLE "0:"
    INDEX 01 01:16:14
